<svg xmlns="http://www.w3.org/2000/svg" viewBox="0 0 1400 1230" width="1400" height="1230">
  <defs>
    <!-- Gradients for containers -->
    <linearGradient id="userGradient" x1="0%" y1="0%" x2="0%" y2="100%">
      <stop offset="0%" style="stop-color:#667eea"/>
      <stop offset="100%" style="stop-color:#764ba2"/>
    </linearGradient>
    
    <linearGradient id="ngrokGradient" x1="0%" y1="0%" x2="0%" y2="100%">
      <stop offset="0%" style="stop-color:#f093fb"/>
      <stop offset="100%" style="stop-color:#f5576c"/>
    </linearGradient>
    
    <linearGradient id="nginxGradient" x1="0%" y1="0%" x2="0%" y2="100%">
      <stop offset="0%" style="stop-color:#11998e"/>
      <stop offset="100%" style="stop-color:#38ef7d"/>
    </linearGradient>
    
    <linearGradient id="backendGradient" x1="0%" y1="0%" x2="0%" y2="100%">
      <stop offset="0%" style="stop-color:#4facfe"/>
      <stop offset="100%" style="stop-color:#00f2fe"/>
    </linearGradient>
    
    <linearGradient id="neo4jGradient" x1="0%" y1="0%" x2="0%" y2="100%">
      <stop offset="0%" style="stop-color:#fa709a"/>
      <stop offset="100%" style="stop-color:#fee140"/>
    </linearGradient>
    
    <linearGradient id="ollamaGradient" x1="0%" y1="0%" x2="0%" y2="100%">
      <stop offset="0%" style="stop-color:#a8edea"/>
      <stop offset="100%" style="stop-color:#fed6e3"/>
    </linearGradient>
    
    <!-- Darker gradients for resource boxes -->
    <linearGradient id="ngrokGradientDark" x1="0%" y1="0%" x2="0%" y2="100%">
      <stop offset="0%" style="stop-color:#a5549e"/>
      <stop offset="100%" style="stop-color:#9e3a4a"/>
    </linearGradient>
    
    <linearGradient id="nginxGradientDark" x1="0%" y1="0%" x2="0%" y2="100%">
      <stop offset="0%" style="stop-color:#0d6b63"/>
      <stop offset="100%" style="stop-color:#259e52"/>
    </linearGradient>
    
    <linearGradient id="backendGradientDark" x1="0%" y1="0%" x2="0%" y2="100%">
      <stop offset="0%" style="stop-color:#2d7ac7"/>
      <stop offset="100%" style="stop-color:#00a8b0"/>
    </linearGradient>
    
    <linearGradient id="neo4jGradientDark" x1="0%" y1="0%" x2="0%" y2="100%">
      <stop offset="0%" style="stop-color:#c4506e"/>
      <stop offset="100%" style="stop-color:#c9a020"/>
    </linearGradient>
    
    <linearGradient id="frontendNetGradient" x1="0%" y1="0%" x2="100%" y2="100%">
      <stop offset="0%" style="stop-color:#1a1a2e"/>
      <stop offset="100%" style="stop-color:#16213e"/>
    </linearGradient>
    
    <linearGradient id="backendNetGradient" x1="0%" y1="0%" x2="100%" y2="100%">
      <stop offset="0%" style="stop-color:#0f3460"/>
      <stop offset="100%" style="stop-color:#1a1a2e"/>
    </linearGradient>
    
    <!-- Arrow marker -->
    <marker id="arrowhead" markerWidth="10" markerHeight="7" refX="9" refY="3.5" orient="auto">
      <polygon points="0 0, 10 3.5, 0 7" fill="#e94560"/>
    </marker>
    
    <marker id="arrowheadBlue" markerWidth="10" markerHeight="7" refX="9" refY="3.5" orient="auto">
      <polygon points="0 0, 10 3.5, 0 7" fill="#4facfe"/>
    </marker>
    
    <marker id="arrowheadGreen" markerWidth="10" markerHeight="7" refX="9" refY="3.5" orient="auto">
      <polygon points="0 0, 10 3.5, 0 7" fill="#38ef7d"/>
    </marker>
    
    <!-- Drop shadow filter -->
    <filter id="dropShadow" x="-20%" y="-20%" width="140%" height="140%">
      <feDropShadow dx="3" dy="3" stdDeviation="4" flood-color="#000" flood-opacity="0.3"/>
    </filter>
    
    <filter id="glow">
      <feGaussianBlur stdDeviation="3" result="coloredBlur"/>
      <feMerge>
        <feMergeNode in="coloredBlur"/>
        <feMergeNode in="SourceGraphic"/>
      </feMerge>
    </filter>
  </defs>
  
  <!-- Background -->
  <rect width="1400" height="1230" fill="#0d1117"/>
  
  <!-- Title -->
  <text x="700" y="45" font-family="Segoe UI, Arial, sans-serif" font-size="32" font-weight="bold" fill="#ffffff" text-anchor="middle">
    Rules Lawyer - Production Architecture
  </text>
  <text x="700" y="75" font-family="Segoe UI, Arial, sans-serif" font-size="16" fill="#8b949e" text-anchor="middle">
    RAG-based Game Rules Q&amp;A System | Docker Compose Production Stack
  </text>
  
  <!-- Frontend Network Rectangle -->
  <rect x="200" y="100" width="1000" height="360" rx="15" ry="15" fill="url(#frontendNetGradient)" stroke="#e94560" stroke-width="3" stroke-dasharray="10,5" filter="url(#dropShadow)"/>
  <text x="220" y="130" font-family="Segoe UI, Arial, sans-serif" font-size="18" font-weight="bold" fill="#e94560">
    frontend-network
  </text>
  <text x="220" y="150" font-family="Segoe UI, Arial, sans-serif" font-size="12" fill="#8b949e">
    External access enabled (accepts incoming traffic)
  </text>
  
  <!-- Backend Network Rectangle -->
  <rect x="200" y="490" width="1000" height="420" rx="15" ry="15" fill="url(#backendNetGradient)" stroke="#4facfe" stroke-width="3" stroke-dasharray="10,5" filter="url(#dropShadow)"/>
  <text x="220" y="520" font-family="Segoe UI, Arial, sans-serif" font-size="18" font-weight="bold" fill="#4facfe">
    backend-network
  </text>
  <text x="220" y="540" font-family="Segoe UI, Arial, sans-serif" font-size="12" fill="#8b949e">
    Internal only - services communicate securely
  </text>
  
  <!-- User Icon (outside networks) -->
  <g transform="translate(50, 250)">
    <circle cx="50" cy="25" r="20" fill="url(#userGradient)" filter="url(#dropShadow)"/>
    <text x="50" y="65" font-family="Segoe UI, Arial, sans-serif" font-size="14" font-weight="bold" fill="#ffffff" text-anchor="middle">USER</text>
    <text x="50" y="82" font-family="Segoe UI, Arial, sans-serif" font-size="10" fill="#8b949e" text-anchor="middle">Internet</text>
  </g>
  
  <!-- Arrow: User to ngrok -->
  <line x1="120" y1="275" x2="240" y2="275" stroke="#e94560" stroke-width="3" marker-end="url(#arrowhead)"/>
  
  <!-- ngrok Container -->
  <g transform="translate(240, 180)">
    <!-- Resource layer at bottom -->
    <path d="M0,190 L180,190 L180,213 Q180,225 168,225 L12,225 Q0,225 0,213 Z" fill="url(#ngrokGradientDark)" filter="url(#dropShadow)"/>
    <text x="90" y="212" font-family="Consolas, monospace" font-size="14" fill="#ffffff" text-anchor="middle">CPU: 0.5 | MEM: 512M</text>
    
    <!-- Main container (flat bottom) -->
    <path d="M12,0 Q0,0 0,12 L0,190 L180,190 L180,12 Q180,0 168,0 Z" fill="url(#ngrokGradient)" filter="url(#dropShadow)"/>
    <rect x="10" y="10" width="160" height="30" rx="5" ry="5" fill="rgba(0,0,0,0.3)"/>
    <text x="90" y="32" font-family="Segoe UI, Arial, sans-serif" font-size="16" font-weight="bold" fill="#ffffff" text-anchor="middle">ngrok</text>
    
    <text x="15" y="60" font-family="Consolas, monospace" font-size="10" fill="#1a1a2e">ngrok/ngrok:3.33.1-alpine</text>
    
    <rect x="10" y="70" width="160" height="60" rx="5" ry="5" fill="rgba(0,0,0,0.2)"/>
    <text x="90" y="88" font-family="Segoe UI, Arial, sans-serif" font-size="11" fill="#ffffff" text-anchor="middle">Secure tunnel exposing</text>
    <text x="90" y="103" font-family="Segoe UI, Arial, sans-serif" font-size="11" fill="#ffffff" text-anchor="middle">local services to internet</text>
    <text x="90" y="118" font-family="Segoe UI, Arial, sans-serif" font-size="11" fill="#ffffff" text-anchor="middle">with public HTTPS URL</text>
    
    <rect x="10" y="140" width="160" height="40" rx="5" ry="5" fill="rgba(0,0,0,0.2)"/>
    <text x="90" y="158" font-family="Consolas, monospace" font-size="10" fill="#ffeb3b" text-anchor="middle">proto: http</text>
    <text x="90" y="172" font-family="Consolas, monospace" font-size="10" fill="#ffeb3b" text-anchor="middle">addr: nginx</text>
  </g>
  
  <!-- Arrow: ngrok to nginx -->
  <line x1="420" y1="275" x2="530" y2="275" stroke="#e94560" stroke-width="3" marker-end="url(#arrowhead)"/>
  
  <!-- nginx Container -->
  <g transform="translate(530, 160)">
    <!-- Resource layer at bottom -->
    <path d="M0,230 L260,230 L260,253 Q260,265 248,265 L12,265 Q0,265 0,253 Z" fill="url(#nginxGradientDark)" filter="url(#dropShadow)"/>
    <text x="130" y="255" font-family="Consolas, monospace" font-size="18" fill="#ffffff" text-anchor="middle">CPU: 1.0 | MEM: 512M</text>
    
    <!-- Main container (flat bottom) -->
    <path d="M12,0 Q0,0 0,12 L0,230 L260,230 L260,12 Q260,0 248,0 Z" fill="url(#nginxGradient)" filter="url(#dropShadow)"/>
    <rect x="10" y="10" width="240" height="30" rx="5" ry="5" fill="rgba(0,0,0,0.3)"/>
    <text x="130" y="32" font-family="Segoe UI, Arial, sans-serif" font-size="16" font-weight="bold" fill="#ffffff" text-anchor="middle">nginx</text>
    
    <text x="15" y="60" font-family="Consolas, monospace" font-size="10" fill="#1a1a2e">nginx:alpine (multi-stage build)</text>
    
    <rect x="10" y="70" width="240" height="45" rx="5" ry="5" fill="rgba(0,0,0,0.2)"/>
    <text x="130" y="88" font-family="Segoe UI, Arial, sans-serif" font-size="11" fill="#ffffff" text-anchor="middle">Reverse proxy &amp; static file server.</text>
    <text x="130" y="103" font-family="Segoe UI, Arial, sans-serif" font-size="11" fill="#ffffff" text-anchor="middle">Serves Vite + React SPA frontend.</text>
    
    <rect x="10" y="125" width="240" height="95" rx="5" ry="5" fill="rgba(0,0,0,0.2)"/>
    <text x="130" y="143" font-family="Consolas, monospace" font-size="11" fill="#ffeb3b" text-anchor="middle">Routes:</text>
    <text x="20" y="160" font-family="Consolas, monospace" font-size="10" fill="#ffffff">/ → Frontend (React SPA)</text>
    <text x="20" y="175" font-family="Consolas, monospace" font-size="10" fill="#ffffff">/api/* → backend</text>
    <text x="20" y="190" font-family="Consolas, monospace" font-size="10" fill="#ffffff">/auth/* → backend</text>
    <text x="20" y="205" font-family="Consolas, monospace" font-size="10" fill="#ffffff">/query → backend</text>
  </g>
  
  
  <!-- Backend Container (spans both networks) -->
  <g transform="translate(530, 560)">
    <!-- Resource layer at bottom -->
    <path d="M0,290 L260,290 L260,313 Q260,325 248,325 L12,325 Q0,325 0,313 Z" fill="url(#backendGradientDark)" filter="url(#dropShadow)"/>
    <text x="130" y="315" font-family="Consolas, monospace" font-size="18" fill="#ffffff" text-anchor="middle">CPU: 2.0 | MEM: 4G</text>
    
    <!-- Main container (flat bottom) -->
    <path d="M12,0 Q0,0 0,12 L0,290 L260,290 L260,12 Q260,0 248,0 Z" fill="url(#backendGradient)" filter="url(#dropShadow)"/>
    <rect x="10" y="10" width="240" height="30" rx="5" ry="5" fill="rgba(0,0,0,0.3)"/>
    <text x="130" y="32" font-family="Segoe UI, Arial, sans-serif" font-size="16" font-weight="bold" fill="#1a1a2e" text-anchor="middle">RESTful API</text>
    
    <text x="15" y="60" font-family="Consolas, monospace" font-size="10" fill="#1a1a2e">python:3.10-slim | uvicorn</text>
    
    <rect x="10" y="70" width="240" height="55" rx="5" ry="5" fill="rgba(0,0,0,0.2)"/>
    <text x="130" y="88" font-family="Segoe UI, Arial, sans-serif" font-size="11" fill="#1a1a2e" text-anchor="middle">RAG-based Q&amp;A service using</text>
    <text x="130" y="103" font-family="Segoe UI, Arial, sans-serif" font-size="11" fill="#1a1a2e" text-anchor="middle">Haystack pipelines for semantic</text>
    <text x="130" y="118" font-family="Segoe UI, Arial, sans-serif" font-size="11" fill="#1a1a2e" text-anchor="middle">search &amp; LLM response generation.</text>
    
    <rect x="10" y="135" width="240" height="145" rx="5" ry="5" fill="rgba(0,0,0,0.2)"/>
    <text x="130" y="153" font-family="Consolas, monospace" font-size="11" fill="#ffeb3b" text-anchor="middle">API Endpoints:</text>
    <text x="20" y="170" font-family="Consolas, monospace" font-size="10" fill="#1a1a2e">POST /auth/login → JWT auth</text>
    <text x="20" y="185" font-family="Consolas, monospace" font-size="10" fill="#1a1a2e">GET /auth/verify → Token check</text>
    <text x="20" y="200" font-family="Consolas, monospace" font-size="10" fill="#1a1a2e">GET /query?q= → RAG query</text>
    <text x="20" y="215" font-family="Consolas, monospace" font-size="10" fill="#1a1a2e">GET /health → Health check</text>
    <text x="20" y="230" font-family="Consolas, monospace" font-size="10" fill="#1a1a2e">GET /docs → Swagger UI</text>
    <text x="20" y="245" font-family="Consolas, monospace" font-size="10" fill="#1a1a2e">GET /api/protected → Auth test</text>
  </g>
  
  <!-- Arrow: nginx to backend -->
  <line x1="660" y1="425" x2="660" y2="560" stroke="#38ef7d" stroke-width="3" marker-end="url(#arrowheadGreen)"/>
  
  
  <!-- Neo4j Container -->
  <g transform="translate(240, 570)">
    <!-- Resource layer at bottom -->
    <path d="M0,240 L220,240 L220,263 Q220,275 208,275 L12,275 Q0,275 0,263 Z" fill="url(#neo4jGradientDark)" filter="url(#dropShadow)"/>
    <text x="110" y="265" font-family="Consolas, monospace" font-size="18" fill="#ffffff" text-anchor="middle">CPU: 2.0 | MEM: 4G</text>
    
    <!-- Main container (flat bottom) -->
    <path d="M12,0 Q0,0 0,12 L0,240 L220,240 L220,12 Q220,0 208,0 Z" fill="url(#neo4jGradient)" filter="url(#dropShadow)"/>
    <rect x="10" y="10" width="200" height="30" rx="5" ry="5" fill="rgba(0,0,0,0.3)"/>
    <text x="110" y="32" font-family="Segoe UI, Arial, sans-serif" font-size="14" font-weight="bold" fill="#1a1a2e" text-anchor="middle">Neo4J Graph Database</text>
    
    <text x="15" y="60" font-family="Consolas, monospace" font-size="9" fill="#1a1a2e">neo4j:2025.10.1-community</text>
    
    <rect x="10" y="70" width="200" height="55" rx="5" ry="5" fill="rgba(0,0,0,0.2)"/>
    <text x="110" y="88" font-family="Segoe UI, Arial, sans-serif" font-size="11" fill="#1a1a2e" text-anchor="middle">Graph database storing</text>
    <text x="110" y="103" font-family="Segoe UI, Arial, sans-serif" font-size="11" fill="#1a1a2e" text-anchor="middle">document embeddings as</text>
    <text x="110" y="118" font-family="Segoe UI, Arial, sans-serif" font-size="11" fill="#1a1a2e" text-anchor="middle">vector index for RAG.</text>
    
    <rect x="10" y="135" width="200" height="65" rx="5" ry="5" fill="rgba(0,0,0,0.2)"/>
    <text x="110" y="153" font-family="Consolas, monospace" font-size="11" fill="#ffeb3b" text-anchor="middle">Config:</text>
    <text x="20" y="170" font-family="Consolas, monospace" font-size="9" fill="#666">embedding_dim: 768</text>
    <text x="20" y="185" font-family="Consolas, monospace" font-size="9" fill="#666">recreate_index: true</text>
  </g>
  
  <!-- Arrow: backend to neo4j -->
  <line x1="530" y1="690" x2="460" y2="690" stroke="#4facfe" stroke-width="3" marker-end="url(#arrowheadBlue)"/>
  
  <!-- Ollama Container with GPU layer -->
  <g transform="translate(880, 570)">
    <!-- GPU layer at very bottom (only bottom corners rounded) -->
    <path d="M0,275 L260,275 L260,298 Q260,310 248,310 L12,310 Q0,310 0,298 Z" fill="#76ff03" filter="url(#dropShadow)"/>
    <text x="130" y="298" font-family="Segoe UI, Arial, sans-serif" font-size="16" font-weight="bold" fill="#1a1a2e" text-anchor="middle">NVIDIA GPU</text>
    
    <!-- Resource layer (middle, flat corners) -->
    <rect y="240" width="260" height="35" fill="#a0a0a0" filter="url(#dropShadow)"/>
    <text x="130" y="266" font-family="Consolas, monospace" font-size="18" fill="#1a1a2e" text-anchor="middle">CPU: 4.0 | MEM: 10G</text>
    
    <!-- Main ollama container (only top corners rounded) -->
    <path d="M12,0 Q0,0 0,12 L0,240 L260,240 L260,12 Q260,0 248,0 Z" fill="url(#ollamaGradient)" filter="url(#dropShadow)"/>
    
    <rect x="10" y="10" width="240" height="30" rx="5" ry="5" fill="rgba(0,0,0,0.3)"/>
    <text x="130" y="32" font-family="Segoe UI, Arial, sans-serif" font-size="16" font-weight="bold" fill="#1a1a2e" text-anchor="middle">Ollama LLM Server</text>
    
    <text x="15" y="60" font-family="Consolas, monospace" font-size="10" fill="#1a1a2e">ollama/ollama:0.13.0</text>
    
    <rect x="10" y="70" width="240" height="55" rx="5" ry="5" fill="rgba(0,0,0,0.2)"/>
    <text x="130" y="88" font-family="Segoe UI, Arial, sans-serif" font-size="11" fill="#1a1a2e" text-anchor="middle">Local LLM inference server.</text>
    <text x="130" y="103" font-family="Segoe UI, Arial, sans-serif" font-size="11" fill="#1a1a2e" text-anchor="middle">Provides embeddings &amp; text</text>
    <text x="130" y="118" font-family="Segoe UI, Arial, sans-serif" font-size="11" fill="#1a1a2e" text-anchor="middle">generation for RAG pipeline.</text>
    
    <rect x="10" y="135" width="240" height="95" rx="5" ry="5" fill="rgba(0,0,0,0.2)"/>
    <text x="130" y="153" font-family="Consolas, monospace" font-size="11" fill="#ffeb3b" text-anchor="middle">API Calls:</text>
    <text x="20" y="170" font-family="Consolas, monospace" font-size="10" fill="#1a1a2e">/api/embeddings → vectors</text>
    <text x="20" y="185" font-family="Consolas, monospace" font-size="10" fill="#1a1a2e">/api/generate → LLM response</text>
    <text x="20" y="205" font-family="Consolas, monospace" font-size="9" fill="#666">EMBEDDING_MODEL: nomic-embed-text</text>
    <text x="20" y="220" font-family="Consolas, monospace" font-size="9" fill="#666">GENERATIVE_MODEL: gemma3</text>
  </g>
  
  <!-- Arrow: backend to ollama -->
  <line x1="790" y1="690" x2="880" y2="690" stroke="#4facfe" stroke-width="3" marker-end="url(#arrowheadBlue)"/>
  
  <!-- Data flow annotations -->
  <g transform="translate(890, 170)">
    <rect width="250" height="180" rx="10" ry="10" fill="#161b22" stroke="#30363d" stroke-width="2"/>
    <text x="125" y="25" font-family="Segoe UI, Arial, sans-serif" font-size="14" font-weight="bold" fill="#58a6ff" text-anchor="middle">Request Flow</text>
    <text x="15" y="50" font-family="Segoe UI, Arial, sans-serif" font-size="11" fill="#c9d1d9">1. User sends HTTPS request</text>
    <text x="15" y="70" font-family="Segoe UI, Arial, sans-serif" font-size="11" fill="#c9d1d9">2. ngrok tunnels to nginx</text>
    <text x="15" y="90" font-family="Segoe UI, Arial, sans-serif" font-size="11" fill="#c9d1d9">3. nginx routes by path:</text>
    <text x="25" y="108" font-family="Consolas, monospace" font-size="10" fill="#8b949e">• Static → serve SPA</text>
    <text x="25" y="123" font-family="Consolas, monospace" font-size="10" fill="#8b949e">• API → proxy to backend</text>
    <text x="15" y="143" font-family="Segoe UI, Arial, sans-serif" font-size="11" fill="#c9d1d9">4. Backend queries Neo4j</text>
    <text x="15" y="163" font-family="Segoe UI, Arial, sans-serif" font-size="11" fill="#c9d1d9">5. Ollama generates response</text>
  </g>
  
  <!-- Legend -->
  <g transform="translate(100, 950)">
    <rect width="1200" height="230" rx="10" ry="10" fill="#161b22" stroke="#30363d" stroke-width="2"/>
    <text x="600" y="30" font-family="Segoe UI, Arial, sans-serif" font-size="18" font-weight="bold" fill="#ffffff" text-anchor="middle">LEGEND</text>
    
    <!-- Container Types -->
    <g transform="translate(80, 50)">
      <text x="0" y="15" font-family="Segoe UI, Arial, sans-serif" font-size="14" font-weight="bold" fill="#58a6ff">Containers:</text>
      
      <rect x="0" y="25" width="20" height="20" rx="3" fill="url(#ngrokGradient)"/>
      <text x="30" y="40" font-family="Segoe UI, Arial, sans-serif" font-size="12" fill="#c9d1d9">ngrok - Secure tunnel (exposes app)</text>
      
      <rect x="0" y="55" width="20" height="20" rx="3" fill="url(#nginxGradient)"/>
      <text x="30" y="70" font-family="Segoe UI, Arial, sans-serif" font-size="12" fill="#c9d1d9">nginx - Reverse proxy + Frontend</text>
      
      <rect x="0" y="85" width="20" height="20" rx="3" fill="url(#backendGradient)"/>
      <text x="30" y="100" font-family="Segoe UI, Arial, sans-serif" font-size="12" fill="#c9d1d9">backend - FastAPI + RAG service</text>
      
      <rect x="0" y="115" width="20" height="20" rx="3" fill="url(#neo4jGradient)"/>
      <text x="30" y="130" font-family="Segoe UI, Arial, sans-serif" font-size="12" fill="#c9d1d9">neo4j - Vector database</text>
      
      <rect x="0" y="145" width="20" height="20" rx="3" fill="url(#ollamaGradient)"/>
      <text x="30" y="160" font-family="Segoe UI, Arial, sans-serif" font-size="12" fill="#c9d1d9">ollama - Local LLM server</text>
    </g>
    
    <!-- Networks -->
    <g transform="translate(460, 50)">
      <text x="0" y="15" font-family="Segoe UI, Arial, sans-serif" font-size="14" font-weight="bold" fill="#58a6ff">Networks:</text>
      
      <rect x="0" y="25" width="25" height="15" rx="3" fill="none" stroke="#e94560" stroke-width="2" stroke-dasharray="4,2"/>
      <text x="35" y="37" font-family="Segoe UI, Arial, sans-serif" font-size="12" fill="#c9d1d9">frontend-network (external access)</text>
      
      <rect x="0" y="55" width="25" height="15" rx="3" fill="none" stroke="#4facfe" stroke-width="2" stroke-dasharray="4,2"/>
      <text x="35" y="67" font-family="Segoe UI, Arial, sans-serif" font-size="12" fill="#c9d1d9">backend-network (internal only)</text>
    </g>
    
    <!-- Arrows & Connections -->
    <g transform="translate(840, 50)">
      <text x="0" y="15" font-family="Segoe UI, Arial, sans-serif" font-size="14" font-weight="bold" fill="#58a6ff">Connections:</text>
      
      <line x1="0" y1="32" x2="40" y2="32" stroke="#e94560" stroke-width="3" marker-end="url(#arrowhead)"/>
      <text x="50" y="37" font-family="Segoe UI, Arial, sans-serif" font-size="12" fill="#c9d1d9">External traffic</text>
      
      <line x1="0" y1="62" x2="40" y2="62" stroke="#38ef7d" stroke-width="3" marker-end="url(#arrowheadGreen)"/>
      <text x="50" y="67" font-family="Segoe UI, Arial, sans-serif" font-size="12" fill="#c9d1d9">Proxy pass</text>
      
      <line x1="0" y1="92" x2="40" y2="92" stroke="#4facfe" stroke-width="3" marker-end="url(#arrowheadBlue)"/>
      <text x="50" y="97" font-family="Segoe UI, Arial, sans-serif" font-size="12" fill="#c9d1d9">Internal service call</text>
      
      <rect x="0" y="110" width="20" height="20" rx="3" fill="#76ff03"/>
      <text x="30" y="125" font-family="Segoe UI, Arial, sans-serif" font-size="12" fill="#c9d1d9">GPU acceleration</text>
    </g>
  </g>
  
  
</svg>
